HIERARCHY
ROOT Hips
{
    OFFSET   0.000000   0.000000   0.000000
    CHANNELS 6 Xposition Yposition Zposition Zrotation Xrotation Yrotation
    JOINT Chest
    {
        OFFSET   0.000000   8.007230   0.000000
        CHANNELS 3 Zrotation Xrotation Yrotation
        JOINT Chest2
        {
            OFFSET   0.000000  22.077100   0.000000
            CHANNELS 3 Zrotation Xrotation Yrotation
            JOINT Neck
            {
                OFFSET   0.000000  23.255100   0.000000
                CHANNELS 3 Zrotation Xrotation Yrotation
                JOINT Head
                {
                    OFFSET   0.000000  14.370100   1.956600
                    CHANNELS 3 Zrotation Xrotation Yrotation
                    End Site
                    {
                        OFFSET   0.000000  19.566000   0.000000
                    }
                }
            }
            JOINT LeftCollar
            {
                OFFSET   3.911900  19.017000  -0.467063
                CHANNELS 3 Zrotation Xrotation Yrotation
                JOINT LeftShoulder
                {
                    OFFSET  10.383700   0.000000   0.000000
                    CHANNELS 3 Zrotation Xrotation Yrotation
                    JOINT LeftElbow
                    {
                        OFFSET  26.662100   0.001193   0.000980
                        CHANNELS 3 Zrotation Xrotation Yrotation
                        JOINT LeftWrist
                        {
                            OFFSET  28.869000  -0.000059  -0.000082
                            CHANNELS 3 Zrotation Xrotation Yrotation
                            JOINT LeftFinger0
                            {
                                OFFSET   2.044650  -2.323450   3.252850
                                CHANNELS 3 Zrotation Xrotation Yrotation
                                JOINT LeftFinger01
                                {
                                    OFFSET   3.088130   0.000000   0.000000
                                    CHANNELS 3 Zrotation Xrotation Yrotation
                                    JOINT LeftFinger02
                                    {
                                        OFFSET   2.639460   0.000000   0.000000
                                        CHANNELS 3 Zrotation Xrotation Yrotation
                                        End Site
                                        {
                                            OFFSET   2.582190   0.000000   0.000000
                                        }
                                    }
                                }
                            }
                            JOINT LeftFinger1
                            {
                                OFFSET   8.364480   0.000000   3.252850
                                CHANNELS 3 Zrotation Xrotation Yrotation
                                JOINT LeftFinger11
                                {
                                    OFFSET   4.646930   0.000000   0.000000
                                    CHANNELS 3 Zrotation Xrotation Yrotation
                                    JOINT LeftFinger12
                                    {
                                        OFFSET   2.323470   0.000000   0.000000
                                        CHANNELS 3 Zrotation Xrotation Yrotation
                                        End Site
                                        {
                                            OFFSET   2.273050   0.000000   0.000000
                                        }
                                    }
                                }
                            }
                            JOINT LeftFinger2
                            {
                                OFFSET   8.364490   0.000016   1.078090
                                CHANNELS 3 Zrotation Xrotation Yrotation
                                JOINT LeftFinger21
                                {
                                    OFFSET   5.111610   0.000000   0.000000
                                    CHANNELS 3 Zrotation Xrotation Yrotation
                                    JOINT LeftFinger22
                                    {
                                        OFFSET   2.788150   0.000016   0.000000
                                        CHANNELS 3 Zrotation Xrotation Yrotation
                                        End Site
                                        {
                                            OFFSET   2.727660   0.000000   0.000000
                                        }
                                    }
                                }
                            }
                            JOINT LeftFinger3
                            {
                                OFFSET   7.899780   0.000015  -1.078090
                                CHANNELS 3 Zrotation Xrotation Yrotation
                                JOINT LeftFinger31
                                {
                                    OFFSET   4.646930   0.000000   0.000000
                                    CHANNELS 3 Zrotation Xrotation Yrotation
                                    JOINT LeftFinger32
                                    {
                                        OFFSET   2.323470   0.000000   0.000000
                                        CHANNELS 3 Zrotation Xrotation Yrotation
                                        End Site
                                        {
                                            OFFSET   2.273050   0.000000   0.000000
                                        }
                                    }
                                }
                            }
                            JOINT LeftFinger4
                            {
                                OFFSET   7.435090   0.000000  -3.252850
                                CHANNELS 3 Zrotation Xrotation Yrotation
                                JOINT LeftFinger41
                                {
                                    OFFSET   3.717550   0.000000   0.000000
                                    CHANNELS 3 Zrotation Xrotation Yrotation
                                    JOINT LeftFinger42
                                    {
                                        OFFSET   1.858770   0.000000   0.000000
                                        CHANNELS 3 Zrotation Xrotation Yrotation
                                        End Site
                                        {
                                            OFFSET   1.818440   0.000000   0.000000
                                        }
                                    }
                                }
                            }
                        }
                    }
                }
            }
            JOINT RightCollar
            {
                OFFSET  -3.911910  19.017000  -0.467062
                CHANNELS 3 Zrotation Xrotation Yrotation
                JOINT RightShoulder
                {
                    OFFSET -10.383700   0.000014   0.000000
                    CHANNELS 3 Zrotation Xrotation Yrotation
                    JOINT RightElbow
                    {
                        OFFSET -26.662100   0.001225   0.001091
                        CHANNELS 3 Zrotation Xrotation Yrotation
                        JOINT RightWrist
                        {
                            OFFSET -28.869000  -0.000020  -0.000085
                            CHANNELS 3 Zrotation Xrotation Yrotation
                            JOINT RightFinger0
                            {
                                OFFSET  -2.044650  -2.323490   3.252850
                                CHANNELS 3 Zrotation Xrotation Yrotation
                                JOINT RightFinger01
                                {
                                    OFFSET  -3.088130   0.000000   0.000000
                                    CHANNELS 3 Zrotation Xrotation Yrotation
                                    JOINT RightFinger02
                                    {
                                        OFFSET  -2.639460   0.000000   0.000000
                                        CHANNELS 3 Zrotation Xrotation Yrotation
                                        End Site
                                        {
                                            OFFSET  -2.582190   0.000000   0.000000
                                        }
                                    }
                                }
                            }
                            JOINT RightFinger1
                            {
                                OFFSET  -8.364480   0.000000   3.252850
                                CHANNELS 3 Zrotation Xrotation Yrotation
                                JOINT RightFinger11
                                {
                                    OFFSET  -4.646930   0.000000   0.000000
                                    CHANNELS 3 Zrotation Xrotation Yrotation
                                    JOINT RightFinger12
                                    {
                                        OFFSET  -2.323470   0.000000   0.000000
                                        CHANNELS 3 Zrotation Xrotation Yrotation
                                        End Site
                                        {
                                            OFFSET  -2.273050   0.000000   0.000000
                                        }
                                    }
                                }
                            }
                            JOINT RightFinger2
                            {
                                OFFSET  -8.364480   0.000000   1.078090
                                CHANNELS 3 Zrotation Xrotation Yrotation
                                JOINT RightFinger21
                                {
                                    OFFSET  -5.111620   0.000000   0.000000
                                    CHANNELS 3 Zrotation Xrotation Yrotation
                                    JOINT RightFinger22
                                    {
                                        OFFSET  -2.788160   0.000000   0.000000
                                        CHANNELS 3 Zrotation Xrotation Yrotation
                                        End Site
                                        {
                                            OFFSET  -2.727660   0.000000   0.000000
                                        }
                                    }
                                }
                            }
                            JOINT RightFinger3
                            {
                                OFFSET  -7.899780   0.000000  -1.078090
                                CHANNELS 3 Zrotation Xrotation Yrotation
                                JOINT RightFinger31
                                {
                                    OFFSET  -4.646930   0.000000   0.000000
                                    CHANNELS 3 Zrotation Xrotation Yrotation
                                    JOINT RightFinger32
                                    {
                                        OFFSET  -2.323470   0.000000   0.000000
                                        CHANNELS 3 Zrotation Xrotation Yrotation
                                        End Site
                                        {
                                            OFFSET  -2.273050   0.000000   0.000000
                                        }
                                    }
                                }
                            }
                            JOINT RightFinger4
                            {
                                OFFSET  -7.435090   0.000000  -3.252850
                                CHANNELS 3 Zrotation Xrotation Yrotation
                                JOINT RightFinger41
                                {
                                    OFFSET  -3.717550   0.000000   0.000000
                                    CHANNELS 3 Zrotation Xrotation Yrotation
                                    JOINT RightFinger42
                                    {
                                        OFFSET  -1.858760   0.000000   0.000000
                                        CHANNELS 3 Zrotation Xrotation Yrotation
                                        End Site
                                        {
                                            OFFSET  -1.818440   0.000000   0.000000
                                        }
                                    }
                                }
                            }
                        }
                    }
                }
            }
        }
    }
    JOINT LeftHip
    {
        OFFSET   9.783030   0.000000   0.000000
        CHANNELS 3 Zrotation Xrotation Yrotation
        JOINT LeftKnee
        {
            OFFSET   0.000063 -41.789100   0.000608
            CHANNELS 3 Zrotation Xrotation Yrotation
            JOINT LeftAnkle
            {
                OFFSET   0.000048 -41.133200  -0.000184
                CHANNELS 3 Zrotation Xrotation Yrotation
                JOINT LeftToe
                {
                    OFFSET   0.000000  -6.358960  14.674500
                    CHANNELS 3 Zrotation Xrotation Yrotation
                    End Site
                    {
                        OFFSET   0.000000   0.000000   3.913200
                    }
                }
            }
        }
    }
    JOINT RightHip
    {
        OFFSET  -9.783030   0.000000   0.000000
        CHANNELS 3 Zrotation Xrotation Yrotation
        JOINT RightKnee
        {
            OFFSET   0.000071 -41.789100   0.001239
            CHANNELS 3 Zrotation Xrotation Yrotation
            JOINT RightAnkle
            {
                OFFSET   0.000037 -41.133200  -0.000166
                CHANNELS 3 Zrotation Xrotation Yrotation
                JOINT RightToe
                {
                    OFFSET   0.000000  -6.358960  14.674500
                    CHANNELS 3 Zrotation Xrotation Yrotation
                    End Site
                    {
                        OFFSET   0.000000   0.000000   3.913200
                    }
                }
            }
        }
    }
}
MOTION
Frames: 4
Frame Time:   0.016667
 -0.474618  89.968300   0.863633  -1.019810  -4.752500  -4.757900   0.015540   3.088890  -0.563918   0.061713   6.177480  -1.131150   0.917123  -0.317233  -0.003884   1.506080  -0.643340   8.801850  -4.701370  -0.974743   7.189910 -73.489900  19.601800   1.351570  -2.973880  -6.910320 -14.340600  17.783100  -4.718410  11.110000  47.889300  42.145200 -85.393100 -22.968000   0.003145   0.001382  -6.484020   0.004000  -0.004390 -27.906200   4.345960  -8.143030 -23.085600  -0.000575  -0.005859 -16.159900  -0.001969  -0.002444 -28.195000  -3.233530   6.007850 -34.783500  -0.001668  -0.003148 -23.165800  -0.001166  -0.001537 -26.920500  -3.098660   6.078320 -27.343800   0.001710   0.008134 -18.211000  -0.000797  -0.005720 -30.186800  -3.439950   5.892370 -45.545800  -0.003548  -0.006603 -30.333500  -0.006625  -0.006722  10.454000   2.172320   7.534800  67.452200  10.444400  -1.742920   2.500710  -9.389770   8.973070 -10.589500 -23.263800   2.685110 -37.960300  29.182200  63.093300  29.317800   0.001305  -0.003380   9.658930   0.001422  -0.000439  28.832400   1.490160   2.704430  23.619000   0.000787   0.000577  16.533300   0.002546   0.008544  27.594700  -0.244488  -0.467898  29.680000   0.002410  -0.000758  19.766900   0.005108   0.006224  26.824800  -2.669400  -5.262230  26.966100   0.003855   0.011060  17.959400   0.005544   0.007760  34.594600  -3.357150  -4.853150  52.105400   0.011943   0.001602  34.702100   0.010051  -0.012900   1.034930   5.134890  -0.304746   1.003160   2.755170  15.170400  -5.825070  -4.740420   2.805230  -0.000000   0.000000   0.000000   1.624990   5.133760  -7.829130  -1.480230   2.274500 -13.365700  -7.353570   0.284195   2.422030  -0.000000   0.000000  -0.000000
 -0.479144  89.968300   0.876459  -1.018370  -4.748350  -4.745700   0.015579   3.088890  -0.560700   0.061616   6.177480  -1.124710   0.917441  -0.317303  -0.003854   1.506660  -0.643313   8.821450  -4.701450  -0.974904   7.184330 -73.502800  19.625900   1.352090  -2.983910  -6.956660 -14.323700  17.718700  -4.713390  11.102100  47.899200  42.137200 -85.378100 -22.969400   0.003151   0.001407  -6.484740   0.004007  -0.004395 -27.882600   4.337240  -8.137140 -23.065700  -0.000574  -0.005858 -16.146000  -0.001969  -0.002444 -28.222500  -3.013250   5.594990 -34.824600  -0.001664  -0.003149 -23.193200  -0.001165  -0.001535 -26.923300  -2.885270   5.661110 -27.263700   0.001714   0.008133 -18.157600  -0.000794  -0.005719 -30.177200  -3.202320   5.488370 -45.494800  -0.003546  -0.006599 -30.299500  -0.006623  -0.006721  10.461400   2.173680   7.534820  67.466500  10.444900  -1.742940   2.502010  -9.397480   8.973300 -10.722300 -23.278000   2.667610 -37.926200  29.191900  63.095600  29.385000   0.001307  -0.003380   9.692510   0.001432  -0.000444  28.904900   1.474660   2.668580  23.677600   0.000787   0.000575  16.574300   0.002543   0.008543  27.621700  -0.259930  -0.496790  29.821000   0.002408  -0.000760  19.860800   0.005108   0.006229  26.877100  -2.679480  -5.270020  27.088700   0.003853   0.011057  18.041000   0.005544   0.007760  34.659600  -3.369310  -4.858750  52.203900   0.011942   0.001595  34.767700   0.010052  -0.012904   1.034830   5.135000  -0.304680   0.997234   2.757470  15.150300  -5.823990  -4.748640   2.813690  -0.000000   0.000000  -0.000000   1.626410   5.146100  -7.825540  -1.484290   2.260820 -13.376500  -7.352950   0.283225   2.414080  -0.000000   0.000000   0.000000
 -0.486186  89.968300   0.897223  -1.016060  -4.741750  -4.725580   0.015646   3.088840  -0.555802   0.061483   6.177380  -1.114900   0.917759  -0.317602  -0.003810   1.507420  -0.643297   8.856510  -4.701590  -0.975069   7.176620 -73.524500  19.660400   1.352690  -3.001290  -7.028680 -14.295300  17.644000  -4.702030  11.089900  47.933500  42.125100 -85.352000 -22.970900   0.003156   0.001433  -6.485460   0.004014  -0.004403 -27.820500   4.323920  -8.131200 -23.013800  -0.000571  -0.005855 -16.109700  -0.001969  -0.002443 -28.260500  -2.644540   4.906300 -34.865700  -0.001657  -0.003149 -23.220500  -0.001162  -0.001528 -26.928600  -2.529780   4.966350 -27.153400   0.001719   0.008131 -18.084200  -0.000786  -0.005718 -30.155600  -2.806070   4.815880 -45.410000  -0.003539  -0.006591 -30.243000  -0.006618  -0.006718  10.471900   2.177730   7.534930  67.480900  10.448200  -1.742980   2.504360  -9.411270   8.973690 -10.910900 -23.294200   2.643200 -37.875100  29.204900  63.101400  29.484400   0.001308  -0.003381   9.742180   0.001446  -0.000449  29.008400   1.446840   2.607220  23.761000   0.000786   0.000570  16.632700   0.002538   0.008541  27.658300  -0.288947  -0.551366  30.012800   0.002407  -0.000764  19.988500   0.005106   0.006233  26.947500  -2.700740  -5.295460  27.266100   0.003851   0.011052  18.159200   0.005543   0.007758  34.747900  -3.395380  -4.880010  52.338900   0.011940   0.001583  34.857700   0.010054  -0.012909   1.034730   5.135800  -0.304576   0.988752   2.759900  15.120800  -5.822980  -4.757220   2.822140  -0.000000   0.000000   0.000000   1.629050   5.164830  -7.822030  -1.489790   2.241080 -13.387200  -7.352300   0.282256   2.401120  -0.000000   0.000000   0.000000
 -0.490546  89.968200   0.912596  -1.014440  -4.736920  -4.710620   0.015708   3.088700  -0.552299   0.061444   6.177090  -1.107880   0.916083  -0.318305  -0.003790   1.504800  -0.644740   8.887620  -4.705480  -0.975065   7.173670 -73.540800  19.672300   1.350900  -3.017900  -7.075280 -14.272100  17.629100  -4.681680  11.080400  48.025000  42.118000 -85.326300 -22.964900   0.003155   0.001433  -6.482470   0.004012  -0.004407 -27.688600   4.314110  -8.151070 -22.905600  -0.000565  -0.005848 -16.034000  -0.001967  -0.002441 -28.280000  -2.345560   4.349980 -34.829200  -0.001648  -0.003149 -23.196300  -0.001156  -0.001518 -26.936300  -2.251330   4.419970 -27.112900   0.001724   0.008125 -18.057200  -0.000772  -0.005716 -30.118200  -2.494110   4.287830 -45.325500  -0.003527  -0.006583 -30.186700  -0.006613  -0.006712  10.475200   2.185590   7.536960  67.478300  10.459900  -1.739420   2.505620  -9.425810   8.966410 -10.989700 -23.296600   2.636500 -37.835700  29.207900  63.109100  29.536100   0.001306  -0.003383   9.768030   0.001452  -0.000443  29.059200   1.418650   2.551180  23.801700   0.000788   0.000566  16.661300   0.002535   0.008542  27.669700  -0.322462  -0.614985  30.074500   0.002408  -0.000769  20.029600   0.005104   0.006226  26.968300  -2.730710  -5.349280  27.362800   0.003850   0.011051  18.223600   0.005537   0.007753  34.777000  -3.434350  -4.928460  52.386600   0.011945   0.001574  34.889500   0.010057  -0.012908   1.034950   5.148190  -0.304497   0.988472   2.746900  15.106900  -5.823900  -4.757600   2.821410   0.000000   0.000000   0.000000   1.635250   5.174440  -7.832880  -1.491830   2.233060 -13.382600  -7.353850   0.282489   2.391560   0.000000   0.000000  -0.000000
